<?xml version="1.0" standalone="no"?>
<!DOCTYPE svg PUBLIC "-//W3C//DTD SVG 20010904//EN"
 "http://www.w3.org/TR/2001/REC-SVG-20010904/DTD/svg10.dtd">
<svg version="1.0" xmlns="http://www.w3.org/2000/svg"
 width="1400.000000pt" height="1400.000000pt" viewBox="0 0 1400.000000 1400.000000"
 preserveAspectRatio="xMidYMid meet">
<metadata>
Created by potrace 1.14, written by Peter Selinger 2001-2017
</metadata>
<g transform="translate(0.000000,1400.000000) scale(0.100000,-0.100000)"
fill="#000000" stroke="none">
<path d="M0 7000 l0 -7000 7000 0 7000 0 0 7000 0 7000 -7000 0 -7000 0 0
-7000z m6521 4415 l4 -910 -145 -6 c-987 -44 -1793 -781 -1889 -1728 -66 -646
226 -1291 766 -1689 336 -247 718 -380 1144 -399 l147 -6 6 -621 c4 -342 6
-765 4 -941 l-3 -321 -2269 1891 c-1248 1040 -2271 1895 -2273 1901 -3 9 4496
3749 4502 3742 1 -2 4 -412 6 -913z m529 -1910 l0 -2825 -220 0 -220 0 0 2825
0 2825 220 0 220 0 0 -2825z m2304 994 c307 1 413 -7 586 -45 385 -85 727
-270 1001 -544 505 -504 680 -1222 462 -1892 -47 -144 -164 -376 -250 -497
-78 -108 -255 -297 -358 -381 -271 -221 -594 -366 -960 -431 -126 -22 -147
-23 -740 -23 -335 0 -648 2 -695 3 -47 2 -166 0 -265 -4 -99 -5 -211 -4 -250
0 l-70 8 123 23 c315 58 634 199 887 393 85 65 247 223 318 311 224 278 366
608 408 953 17 140 6 443 -20 572 -81 394 -300 774 -601 1042 -173 153 -391
287 -609 373 -112 45 -330 104 -423 115 -32 4 -58 11 -58 16 0 5 205 8 488 6
268 -1 539 0 602 4 63 3 122 4 130 1 8 -2 141 -3 294 -3z m1059 -4097 c54 -54
57 -60 47 -86 -14 -37 -13 -52 6 -70 20 -20 68 -20 192 0 105 17 257 14 325
-6 52 -16 113 -79 149 -156 l30 -64 419 0 419 0 0 -75 0 -75 -165 0 -165 0 0
-445 0 -445 -115 0 -115 0 0 445 0 445 -415 0 -415 0 0 -371 0 -370 23 6 c12
3 60 25 107 47 63 31 102 58 151 108 96 95 113 167 53 227 -21 21 -32 24 -67
21 -23 -3 -49 -8 -58 -12 -38 -17 -54 121 -21 184 12 21 40 48 72 68 44 26 64
32 110 32 101 -1 202 -69 258 -175 36 -67 38 -185 4 -259 -67 -149 -226 -270
-436 -330 -144 -42 -184 -43 -340 -6 l-136 33 0 399 0 398 -380 0 c-209 0
-380 -2 -380 -5 0 -2 20 -16 44 -30 29 -17 69 -28 125 -36 92 -11 111 -20 135
-61 10 -16 26 -28 37 -28 51 0 152 -68 190 -128 60 -95 26 -216 -83 -302 -62
-50 -93 -66 -177 -96 l-65 -23 55 -23 c30 -14 111 -49 182 -78 70 -30 127 -57
127 -61 0 -3 -52 -40 -115 -82 l-114 -77 -218 147 c-120 81 -221 151 -224 156
-4 5 -10 36 -13 69 -4 33 -9 65 -12 73 -4 11 17 13 108 13 62 0 133 5 158 12
171 46 280 176 219 260 -8 12 -12 12 -16 2 -21 -52 -146 -143 -265 -193 -64
-27 -81 -30 -136 -25 -60 5 -68 3 -135 -34 -87 -47 -212 -90 -262 -90 -33 0
-68 7 -197 41 l-38 10 0 294 0 295 -115 0 -115 0 0 -445 0 -445 -119 0 -120 0
-3 328 -3 327 -31 55 c-34 61 -116 120 -166 120 -54 0 -97 -26 -118 -72 -40
-88 -20 -151 65 -199 30 -17 55 -34 55 -37 0 -4 -11 -25 -23 -47 -62 -109
-228 -115 -335 -12 -88 84 -112 241 -58 370 l15 37 -80 0 -79 0 0 -460 0 -460
-82 6 c-138 10 -217 30 -316 80 -154 78 -282 211 -374 392 -35 67 -48 104 -48
135 0 76 19 93 228 202 l190 100 -269 3 -269 2 0 90 0 90 553 -2 552 -3 3 -76
3 -75 41 39 c46 44 121 82 183 93 32 5 91 48 307 221 l267 215 62 -9 63 -8
-217 -233 c-119 -128 -217 -237 -217 -242 0 -5 9 -14 20 -20 11 -6 34 -29 50
-52 l30 -41 0 91 0 92 1315 0 c1168 0 1315 2 1315 15 0 21 -59 55 -96 55 -17
0 -77 -7 -135 -16 -270 -41 -454 43 -488 222 -8 37 -6 63 6 107 9 31 19 57 22
57 4 0 33 -26 64 -58z m-7585 -1797 c198 -47 324 -192 309 -355 -8 -96 -57
-171 -148 -230 l-59 -38 47 -23 c72 -35 146 -114 168 -179 69 -202 -60 -399
-296 -455 -49 -11 -132 -15 -361 -15 l-298 0 0 655 0 655 288 0 c218 0 302 -4
350 -15z m5652 -200 c0 -118 2 -215 4 -215 2 0 26 11 53 25 165 85 378 37 477
-108 60 -88 66 -131 66 -484 l0 -313 -120 0 -120 0 0 289 0 289 -27 52 c-34
63 -77 90 -146 90 -88 0 -154 -48 -177 -128 -6 -21 -10 -154 -10 -314 l0 -278
-120 0 -120 0 0 655 0 655 120 0 120 0 0 -215z m2250 -45 l0 -129 103 -3 102
-3 3 -102 3 -103 -106 0 -105 0 0 -355 0 -355 -120 0 -120 0 0 355 0 355 -80
0 -80 0 0 105 0 105 80 0 80 0 0 130 0 130 120 0 120 0 0 -130z m-5790 -111
c27 -6 50 -15 50 -21 0 -5 -21 -58 -47 -118 -44 -104 -47 -108 -70 -99 -66 25
-138 -1 -174 -64 -24 -41 -24 -46 -27 -339 l-3 -298 -120 0 -119 0 0 460 0
460 110 0 110 0 0 -36 0 -36 42 33 c44 35 126 68 170 69 15 0 50 -5 78 -11z
m702 0 c119 -25 215 -106 259 -215 23 -57 24 -69 27 -391 l3 -333 -120 0 -121
0 0 273 c0 149 -5 290 -10 311 -18 81 -84 136 -162 136 -89 0 -155 -48 -178
-128 -6 -21 -10 -154 -10 -314 l0 -278 -120 0 -120 0 0 460 0 461 112 -3 113
-3 5 -29 c5 -27 6 -28 19 -12 20 24 60 44 123 60 66 18 112 19 180 5z m-1766
-14 c27 -8 75 -30 107 -49 l57 -35 0 40 0 39 115 0 115 0 0 -460 0 -460 -115
0 -115 0 0 35 0 35 -62 -35 c-73 -40 -162 -65 -230 -65 -207 0 -397 140 -458
339 -24 75 -26 201 -6 276 41 155 154 278 305 331 79 28 210 32 287 9z m2827
0 c123 -32 226 -107 297 -217 53 -82 73 -164 68 -280 -3 -83 -8 -103 -41 -172
-82 -173 -266 -286 -465 -286 -194 1 -372 111 -457 284 -35 71 -40 88 -43 173
-3 70 0 112 13 159 42 157 184 295 348 339 69 18 209 19 280 0z m1112 1 c75
-20 114 -39 172 -83 52 -39 123 -119 123 -139 0 -6 -15 -18 -32 -27 -18 -9
-65 -34 -104 -56 l-72 -40 -26 39 c-14 21 -47 52 -73 67 -41 24 -59 28 -123
28 -57 0 -85 -6 -115 -22 -87 -46 -137 -134 -137 -238 1 -106 45 -182 133
-230 121 -65 290 -12 339 106 7 16 16 29 20 29 4 0 55 -23 114 -50 l106 -51
-21 -42 c-31 -60 -134 -158 -201 -190 -31 -15 -85 -34 -120 -42 -356 -84 -689
222 -617 567 37 176 178 323 359 374 61 17 213 17 275 0z m2001 -1 c27 -8 75
-30 107 -49 l57 -35 0 40 0 39 115 0 115 0 0 -460 0 -460 -115 0 -115 0 0 35
0 35 -62 -35 c-73 -40 -162 -65 -230 -65 -213 0 -409 151 -463 355 -65 252 66
507 304 591 79 28 210 32 287 9z m1790 0 c27 -8 75 -30 107 -49 l57 -35 0 40
0 39 115 0 115 0 0 -460 0 -460 -115 0 -115 0 0 35 0 35 -62 -35 c-73 -40
-162 -65 -230 -65 -207 0 -397 140 -458 339 -24 75 -26 201 -6 276 41 155 154
278 305 331 79 28 210 32 287 9z m-2418 -1148 c151 -40 213 -172 145 -307 -33
-63 -83 -106 -152 -130 l-50 -16 91 -145 c50 -79 93 -150 95 -156 4 -10 -16
-13 -81 -13 l-86 0 -33 53 c-19 28 -60 98 -92 155 -46 78 -64 102 -80 102 -19
0 -23 -13 -46 -152 l-24 -153 -75 0 c-69 0 -75 2 -73 20 4 37 104 700 109 728
l6 27 147 0 c91 0 166 -5 199 -13z m2708 -128 c-4 -33 -10 -67 -13 -75 -4 -11
7 -14 57 -14 l62 0 -6 -27 c-2 -16 -7 -45 -11 -65 l-6 -38 -59 0 c-33 0 -60
-4 -60 -8 0 -4 -13 -98 -30 -207 -16 -109 -30 -200 -30 -202 0 -2 -31 -3 -70
-3 -57 0 -70 3 -70 16 0 14 44 317 55 377 4 27 4 27 -46 27 l-50 0 6 48 c11
82 11 82 65 82 53 0 47 -10 65 108 l7 42 70 0 71 0 -7 -61z m-2039 -115 c84
-52 131 -159 114 -259 l-6 -40 -203 -3 c-215 -3 -219 -4 -186 -51 40 -57 144
-68 215 -22 l46 28 51 -42 52 -43 -33 -28 c-50 -42 -115 -67 -192 -72 -129 -8
-227 41 -278 138 -26 50 -29 62 -25 135 5 97 39 168 105 222 67 55 125 74 215
70 64 -3 85 -9 125 -33z m515 22 c21 -8 49 -21 63 -30 28 -19 26 -28 -22 -84
l-28 -33 -40 21 c-47 24 -88 26 -109 4 -31 -31 -14 -59 58 -96 92 -47 126 -90
126 -162 0 -137 -133 -210 -294 -162 -45 14 -116 59 -116 74 1 4 18 26 39 50
l38 44 38 -26 c48 -33 81 -41 114 -30 20 7 26 16 26 39 0 25 -8 35 -50 61 -85
53 -134 102 -141 141 -14 72 30 152 100 184 49 22 144 24 198 5z m597 -17
c102 -51 146 -129 139 -247 -9 -160 -130 -279 -294 -290 -99 -6 -163 16 -225
78 -149 149 -69 409 144 476 23 7 72 13 108 13 54 1 77 -4 128 -30z m606 21
c3 -5 -11 -38 -30 -73 -36 -61 -38 -63 -72 -59 -80 10 -103 -29 -132 -229 -32
-211 -20 -189 -101 -189 -39 0 -70 4 -70 10 0 11 67 457 76 508 l6 32 64 0
c50 0 64 -3 64 -15 0 -19 3 -19 42 5 35 21 142 29 153 10z"/>
<path d="M9154 5862 c6 -10 102 -58 134 -67 20 -6 22 -3 22 34 l0 41 -81 0
c-44 0 -78 -4 -75 -8z"/>
<path d="M9110 5615 c0 -85 3 -155 6 -155 4 0 49 20 100 44 l94 45 0 64 0 64
-47 13 c-25 8 -68 28 -96 47 -27 18 -51 33 -53 33 -2 0 -4 -70 -4 -155z"/>
<path d="M9615 5677 c6 -28 16 -52 21 -54 6 -2 28 12 50 31 32 29 36 35 19 36
-11 0 -38 9 -61 19 l-41 18 12 -50z"/>
<path d="M7253 5567 c-73 -39 -133 -76 -133 -81 0 -16 89 -133 127 -166 46
-41 123 -90 140 -90 10 0 13 43 13 205 0 113 -3 205 -7 204 -5 0 -68 -33 -140
-72z"/>
<path d="M2440 4240 l0 -161 148 3 c123 2 154 6 187 23 112 56 115 205 5 269
-30 18 -55 21 -187 24 l-153 4 0 -162z"/>
<path d="M2440 3700 l0 -172 158 4 c146 3 160 5 201 28 66 37 86 70 86 140 0
72 -21 104 -91 139 -44 22 -64 25 -201 29 l-153 4 0 -172z"/>
<path d="M3688 4015 c-92 -34 -156 -121 -165 -224 -16 -178 134 -316 304 -281
187 39 265 288 134 433 -69 77 -180 106 -273 72z"/>
<path d="M6478 4015 c-128 -48 -198 -199 -154 -332 63 -190 303 -240 431 -90
111 129 68 340 -84 413 -47 23 -145 28 -193 9z"/>
<path d="M9628 4015 c-58 -21 -102 -60 -132 -115 -109 -199 55 -434 271 -390
201 42 269 313 113 453 -72 65 -165 84 -252 52z"/>
<path d="M11418 4015 c-58 -21 -102 -60 -132 -115 -109 -199 55 -434 271 -390
201 42 269 313 113 453 -72 65 -165 84 -252 52z"/>
<path d="M8977 2963 c-3 -5 -10 -44 -17 -88 -6 -44 -13 -88 -16 -97 -5 -16 3
-18 78 -18 94 0 136 18 163 69 31 61 10 113 -53 131 -43 12 -149 14 -155 3z"/>
<path d="M9639 2735 c-23 -12 -59 -55 -59 -70 0 -3 56 -5 125 -5 84 0 125 4
125 11 0 6 -15 26 -34 45 -30 30 -40 34 -82 34 -27 -1 -61 -7 -75 -15z"/>
<path d="M10770 2739 c-62 -25 -101 -86 -102 -160 0 -57 18 -91 65 -119 95
-58 226 29 227 150 0 102 -95 167 -190 129z"/>
</g>
</svg>
